# xmcd
#
# Track frame offsets:
#	150
#	7799
#	26385
#	48405
#	57611
#	68583
#	80732
#	98411
#	120025
#	142045
#	149247
#	163329
#	178258
#	199078
#	216315
#	225987
#
# Disc length: 3162 seconds
#
# Revision: 0
# Processed by: cddbd v1.5.2PL0 Copyright (c) Steve Scherf et al.
# Submitted via: dBpowerAMP V4.0
#
DISCID=de0c5810
DTITLE=Gerardo Torres - Sueños Nublados
DYEAR=1900
DGENRE=Ballad
TTITLE0=Yo no lo se de cierto
TTITLE1=Quien fuera
TTITLE2=Sin tu Latido
TTITLE3=El dia (Fermentados)
TTITLE4=Sabado corto
TTITLE5=Quiero vivir contigo
TTITLE6=Sueños nublados
TTITLE7=La maza
TTITLE8=Gracias a la vida
TTITLE9=La gaviota
TTITLE10=Para vivir
TTITLE11=No te desnudes todavia
TTITLE12=No me pidas ser tu amigo
TTITLE13=Cruz y ficcion
TTITLE14=Insinuaciones a tu paso
TTITLE15=La deriva es la orilla
EXTD=Informacion Proporcionada por Ramiro Castellano Garcia, Apodaca, N.L.
EXTT0=
EXTT1=
EXTT2=
EXTT3=
EXTT4=
EXTT5=
EXTT6=
EXTT7=
EXTT8=
EXTT9=
EXTT10=
EXTT11=
EXTT12=
EXTT13=
EXTT14=
EXTT15=
PLAYORDER=
